SplineFontDB: 3.2
FontName: Taunton
FullName: Taunton
FamilyName: Taunton
Weight: Regular
Copyright: Copyright (c) 2016-2022, Terrence Curran
UComments: "2015-5-25: Created with FontForge (http://fontforge.org)"
Version: 001.000
ItalicAngle: 0
UnderlinePosition: -100
UnderlineWidth: 50
Ascent: 800
Descent: 200
InvalidEm: 0
LayerCount: 2
Layer: 0 0 "Back" 1
Layer: 1 0 "Fore" 0
XUID: [1021 270 -1463357204 2819058]
FSType: 0
OS2Version: 0
OS2_WeightWidthSlopeOnly: 0
OS2_UseTypoMetrics: 1
CreationTime: 1432540265
ModificationTime: 1642735257
PfmFamily: 17
TTFWeight: 400
TTFWidth: 5
LineGap: 90
VLineGap: 0
OS2TypoAscent: 0
OS2TypoAOffset: 1
OS2TypoDescent: 0
OS2TypoDOffset: 1
OS2TypoLinegap: 90
OS2WinAscent: 0
OS2WinAOffset: 1
OS2WinDescent: 0
OS2WinDOffset: 1
HheadAscent: 0
HheadAOffset: 1
HheadDescent: 0
HheadDOffset: 1
OS2Vendor: 'GRIL'
MarkAttachClasses: 1
DEI: 91125

StartChar: W
Encoding: 87 87 0
Width: 556
VWidth: 0
Flags: W
HStem: -2 82<144.962 236.141 322.366 414.038> 572 20G<60 141 239 320 418 499> 572 20G<60 141 239 320 418 499>
VStem: 60 81<84.4075 592> 239 81<83.7598 592> 418 81<84.4075 592>
CounterMasks: 1 1c
LayerCount: 2
Fore
SplineSet
280 -2 m 1xdc
 273.666666667 -7 266.555555556 -8.66666666667 258.703703704 -8.66666666667 c 0
 243 -8.66666666667 224.333333333 -2 203 -2 c 1
 177 -2 l 1
 104 -2 60 37 60 115 c 10
 60 592 l 17
 141 592 l 9
 141 124 l 1
 141 92 149 80 186 80 c 0
 227 80 239 90 239 124 c 2
 239 592 l 17
 320 592 l 1
 320 124 l 2
 320 92 328 80 365 80 c 0
 406 80 418 90 418 124 c 2
 418 592 l 17
 499 592 l 9
 499 115 l 18
 499 37 455 -2 382 -2 c 1
 356 -2 l 1
 334.666666667 -2 316.444444444 -8.66666666667 301.037037037 -8.66666666667 c 0
 293.333333333 -8.66666666667 286.333333333 -7 280 -2 c 1xdc
EndSplineSet
Validated: 1
EndChar

StartChar: S
Encoding: 83 83 1
Width: 372
VWidth: 0
Flags: W
HStem: 600 20G<259.256 303.194>
VStem: 39 294
LayerCount: 2
Fore
SplineSet
144 296 m 1
 95 400 l 2
 87 417 82 433 82 448 c 0
 82 469 92 487 115 503 c 2
 289 620 l 1
 333 558 l 1
 168 447 l 2
 160 442 162 435 165 428 c 2
 224 305 l 1
 277 193 l 2
 285 176 290 160 290 145 c 0
 290 124 280 106 257 90 c 2
 83 -27 l 1
 39 35 l 1
 204 146 l 2
 212 151 210 158 207 165 c 2
 144 296 l 1
EndSplineSet
Validated: 1
EndChar

StartChar: A
Encoding: 65 65 2
Width: 531
VWidth: 0
Flags: W
HStem: 0 21G<118 199 335 416> 0 21G<118 199 335 416> 193 93<82 118 199 335 416 450> 512 80<205.965 328.035>
VStem: 118 81<0 193 286 501.128> 335 81<0 193 286 504.336>
LayerCount: 2
Fore
SplineSet
199 286 m 1x3c
 335 286 l 1
 335 468 l 2
 335 502 310 512 267 512 c 0
 225 512 199 500 199 468 c 2
 199 286 l 1x3c
416 193 m 1
 416 0 l 1
 335 0 l 1
 335 193 l 1
 199 193 l 1
 199 0 l 1
 118 0 l 1xbc
 118 193 l 1
 42 193 l 9
 82 286 l 17
 118 286 l 1
 118 477 l 2
 118 555 162 592 235 592 c 1
 299 592 l 1
 372 592 416 555 416 477 c 2
 416 286 l 1
 490 286 l 9
 450 193 l 17
 416 193 l 1
EndSplineSet
Validated: 1
EndChar

StartChar: N
Encoding: 78 78 3
Width: 445
VWidth: 0
Flags: W
HStem: 0 21G<91 172 308 389> 0 21G<91 172 308 389> 512 80<196.241 302.146>
VStem: 91 81<0 403 568 592> 308 81<0 504.336>
LayerCount: 2
Fore
SplineSet
91 509 m 1xb8
 91 592 l 1
 172 592 l 1
 172 568 l 1
 202 583 235 592 272 592 c 0
 345 592 389 555 389 477 c 2
 389 0 l 1
 308 0 l 1
 308 468 l 2
 308 502 284 512 254 512 c 0
 230 512 200 495 172 474 c 1
 172 0 l 1
 91 0 l 1
 91 403 l 1
 43 457 l 1
 55 471 71 489 91 509 c 1xb8
EndSplineSet
Validated: 1
EndChar

StartChar: K
Encoding: 75 75 4
Width: 501
VWidth: 0
Flags: W
HStem: 0 21G<110 191 320 401> 0 21G<110 191 320 401> 196 93<223 311.12> 572 20G<110 191 333.51 461> 572 20G<110 191 333.51 461>
VStem: 110 81<0 196 388 592> 320 81<0 188.896>
LayerCount: 2
Fore
SplineSet
110 285 m 1xb6
 110 592 l 1
 191 592 l 1
 191 388 l 1
 349 592 l 1
 461 592 l 1
 223 289 l 1
 297 289 l 2
 347 289 401 253 401 198 c 2
 401 0 l 1
 320 0 l 1
 320 148 l 2
 320 168 302 196 277 196 c 2
 191 196 l 1
 191 0 l 1
 110 0 l 1
 110 196 l 1
 41 196 l 1
 110 285 l 1xb6
EndSplineSet
Validated: 1
EndChar

StartChar: L
Encoding: 76 76 5
Width: 430
VWidth: 0
Flags: W
HStem: 0 93<79 93 174 347> 572 20G<93 174> 572 20G<93 174>
VStem: 93 81<93 592>
LayerCount: 2
Fore
SplineSet
174 93 m 1xd0
 387 93 l 9
 347 0 l 17
 39 0 l 9
 79 93 l 17
 93 93 l 1
 93 592 l 1
 174 592 l 1
 174 93 l 1xd0
EndSplineSet
Validated: 1
EndChar

StartChar: M
Encoding: 77 77 6
Width: 662
VWidth: 0
Flags: W
HStem: 0 21G<91 172 308 389 525 606> 0 21G<91 172 308 389 525 606> 512 80<196.241 303.152 412.601 519.146>
VStem: 91 81<0 403 568 592> 308 81<0 488.797> 525 81<0 504.336>
CounterMasks: 1 1c
LayerCount: 2
Fore
SplineSet
369 551 m 1xbc
 412 586 452 592 489 592 c 0
 562 592 606 555 606 477 c 2
 606 0 l 1
 525 0 l 1
 525 468 l 2
 525 502 501 512 471 512 c 0
 447 512 417 495 389 474 c 1
 389 0 l 1
 308 0 l 1
 308 468 l 2
 308 502 284 512 254 512 c 0
 230 512 200 495 172 474 c 1
 172 0 l 1
 91 0 l 1
 91 403 l 1
 43 457 l 1
 55 471 71 489 91 509 c 1
 91 592 l 1
 172 592 l 1
 172 568 l 1
 202 583 235 592 272 592 c 0
 316 592 350 580 369 551 c 1xbc
EndSplineSet
Validated: 1
EndChar

StartChar: E
Encoding: 69 69 7
Width: 436
VWidth: 0
Flags: W
HStem: 0 93<83 97 178 351> 270 93<179 261> 499 93<83 97 178 351> 583 20G<97 178>
VStem: 97 81<93 270 363 499 592 603>
LayerCount: 2
Fore
SplineSet
97 499 m 1xe8
 43 499 l 1
 83 592 l 1
 97 592 l 1xe8
 97 603 l 1
 178 603 l 1xd8
 178 592 l 1
 391 592 l 1
 351 499 l 1
 178 499 l 1
 179 363 l 1
 301 363 l 9
 261 270 l 17
 178 270 l 1
 178 93 l 1
 391 93 l 9
 351 0 l 17
 43 0 l 9
 83 93 l 17
 97 93 l 1
 97 499 l 1xe8
EndSplineSet
Validated: 1
EndChar

StartChar: F
Encoding: 70 70 8
Width: 432
VWidth: 0
Flags: W
HStem: 0 21G<97 178> 0 21G<97 178> 270 93<178 261> 499 93<83 97 178 351> 583 20G<97 178>
VStem: 97 81<0 270 363 499 592 603>
LayerCount: 2
Fore
SplineSet
178 0 m 1xb4
 97 0 l 1
 97 499 l 1
 43 499 l 1
 83 592 l 1
 97 592 l 1xb4
 97 603 l 1
 178 603 l 1x2c
 178 592 l 1
 391 592 l 1
 351 499 l 1
 178 499 l 1
 178 363 l 1
 301 363 l 9
 261 270 l 17
 178 270 l 1
 178 0 l 1xb4
EndSplineSet
Validated: 1
EndChar

StartChar: I
Encoding: 73 73 9
Width: 435
VWidth: 0
Flags: W
HStem: 0 93<83 169 250 351> 499 93<83 169 250 351>
VStem: 169 81<93 499>
LayerCount: 2
Fore
SplineSet
250 499 m 1
 250 93 l 1
 391 93 l 9
 351 0 l 17
 43 0 l 9
 83 93 l 17
 169 93 l 1
 169 499 l 1
 43 499 l 1
 83 592 l 1
 391 592 l 1
 351 499 l 1
 250 499 l 1
EndSplineSet
Validated: 1
EndChar

StartChar: J
Encoding: 74 74 10
Width: 493
VWidth: 0
Flags: W
HStem: 0 80<135.775 223.035> 499 93<144 230 311 412>
VStem: 230 81<88.6211 499>
LayerCount: 2
Fore
SplineSet
123 134 m 1
 129 96 152 80 175 80 c 0
 197 80 230 89 230 123 c 1
 230 499 l 1
 104 499 l 1
 144 592 l 1
 452 592 l 1
 412 499 l 1
 311 499 l 1
 311 116 l 1
 311 38 267 0 194 0 c 1
 164 0 l 1
 91 0 63 35 45 103 c 1
 123 134 l 1
EndSplineSet
Validated: 1
EndChar

StartChar: H
Encoding: 72 72 11
Width: 511
VWidth: 0
Flags: W
HStem: 0 21G<96 177 336 417> 0 21G<96 177 336 417> 196 93<82 96 177 336 417 430> 572 20G<96 177 336 417> 572 20G<96 177 336 417>
VStem: 96 81<0 196 289 592> 336 81<0 196 289 592>
LayerCount: 2
Fore
SplineSet
336 196 m 1xb6
 177 196 l 1
 177 0 l 1
 96 0 l 1
 96 196 l 1
 42 196 l 1
 82 289 l 1
 96 289 l 1
 96 592 l 1
 177 592 l 1
 177 289 l 1
 336 289 l 1
 336 592 l 1
 417 592 l 1
 417 289 l 1
 470 289 l 1
 430 196 l 1
 417 196 l 1
 417 0 l 1
 336 0 l 1
 336 196 l 1xb6
EndSplineSet
Validated: 1
EndChar

StartChar: V
Encoding: 86 86 12
Width: 410
VWidth: 0
Flags: W
HStem: 0 21G<198 218> 0 21G<198 218> 572 20G<49 132.092 283.908 367> 572 20G<49 132.092 283.908 367>
VStem: 49 318
LayerCount: 2
Fore
SplineSet
208 0 m 0xa8
 188 0 138 8 132 50 c 2
 49 592 l 1
 129 592 l 1
 208 81 l 1
 287 592 l 1
 367 592 l 1
 284 50 l 2
 278 8 228 0 208 0 c 0xa8
EndSplineSet
Validated: 1
EndChar

StartChar: G
Encoding: 71 71 13
Width: 406
VWidth: 0
Flags: W
HStem: 0 80<142.965 265.035> 512 80<142.965 265.035>
VStem: 55 81<90.8059 501.128> 272 81<89.8347 186 468 504.501>
LayerCount: 2
Fore
SplineSet
272 186 m 1
 204 144 l 1
 204 237 l 1
 353 327 l 1
 353 124 l 1
 353 46 309 0 236 0 c 1
 172 -2 l 1
 99 -2 55 37 55 115 c 1
 55 477 l 1
 55 555 99 592 172 592 c 1
 236 592 l 1
 309 592 353 553 353 468 c 1
 272 468 l 1
 272 502 247 512 204 512 c 0
 162 512 136 500 136 468 c 1
 136 124 l 1
 136 92 162 80 204 80 c 0
 247 80 272 90 272 124 c 1
 272 186 l 1
EndSplineSet
Validated: 1
EndChar

StartChar: O
Encoding: 79 79 14
Width: 407
VWidth: 0
Flags: W
HStem: -2 82<142.965 265.035> 512 80<142.965 265.035>
VStem: 55 81<90.8059 501.128> 272 81<87.5781 504.336>
LayerCount: 2
Fore
SplineSet
353 115 m 1
 353 37 309 -2 236 -2 c 1
 172 -2 l 1
 99 -2 55 37 55 115 c 1
 55 477 l 1
 55 555 99 592 172 592 c 1
 236 592 l 1
 309 592 353 555 353 477 c 1
 353 115 l 1
272 124 m 1
 272 468 l 1
 272 502 247 512 204 512 c 0
 162 512 136 500 136 468 c 1
 136 124 l 1
 136 92 162 80 204 80 c 0
 247 80 272 90 272 124 c 1
EndSplineSet
Validated: 1
EndChar

StartChar: Q
Encoding: 81 81 15
Width: 455
VWidth: 0
Flags: W
HStem: 0 80<142.965 266.366> 512 80<142.965 265.035>
VStem: 55 81<90.8059 501.128> 272 81<87.8333 504.336>
LayerCount: 2
Fore
SplineSet
346 68 m 1
 418 20 l 1
 374 -42 l 1
 296 10 l 1
 279 2 259 0 236 0 c 1
 172 -2 l 1
 99 -2 55 37 55 115 c 1
 55 477 l 1
 55 555 99 592 172 592 c 1
 236 592 l 1
 309 592 353 555 353 477 c 1
 353 115 l 1
 353 97 350 82 346 68 c 1
272 124 m 1
 272 468 l 1
 272 502 247 512 204 512 c 0
 162 512 136 500 136 468 c 1
 136 124 l 1
 136 92 162 80 204 80 c 0
 247 80 272 90 272 124 c 1
EndSplineSet
Validated: 1
EndChar

StartChar: U
Encoding: 85 85 16
Width: 415
VWidth: 0
Flags: W
HStem: 0 80<147.965 270.035> 572 20G<60 141 277 358> 572 20G<60 141 277 358>
VStem: 60 81<90.8059 592> 277 81<87.6641 592>
LayerCount: 2
Fore
SplineSet
358 592 m 1xd8
 358 115 l 1
 358 37 314 0 241 0 c 1
 177 -2 l 1
 104 -2 60 37 60 115 c 1
 60 592 l 1
 141 592 l 1
 141 124 l 1
 141 92 167 80 209 80 c 0
 252 80 277 90 277 124 c 1
 277 592 l 1
 358 592 l 1xd8
EndSplineSet
Validated: 1
EndChar

StartChar: C
Encoding: 67 67 17
Width: 403
VWidth: 0
Flags: W
HStem: 0 80<142.965 265.035> 512 80<142.965 265.035>
VStem: 55 81<90.8725 501.128> 272 81<89.8347 124 468 504.501>
LayerCount: 2
Fore
SplineSet
353 124 m 1
 353 46 309 0 236 0 c 1
 172 0 l 1
 99 0 55 37 55 115 c 1
 55 477 l 1
 55 555 99 592 172 592 c 1
 236 592 l 1
 309 592 353 553 353 468 c 1
 272 468 l 1
 272 502 247 512 204 512 c 0
 162 512 136 500 136 468 c 1
 136 124 l 1
 136 92 162 80 204 80 c 0
 247 80 272 90 272 124 c 1
 353 124 l 1
EndSplineSet
Validated: 1
EndChar

StartChar: P
Encoding: 80 80 18
Width: 508
VWidth: 0
Flags: W
HStem: 0 21G<97 178> 0 21G<97 178> 279 93<178 365.752> 499 93<83 97 178 363.194> 583 20G<97 178>
VStem: 97 81<0 279 372 499 592 603> 374 82<379.429 491.571>
LayerCount: 2
Fore
SplineSet
329 372 m 1x36
 362 372 374 402 374 431 c 0
 374 464 364 499 330 499 c 2
 178 499 l 1
 178 372 l 1
 329 372 l 1x36
338 279 m 1
 178 279 l 1
 178 0 l 1
 97 0 l 1
 97 499 l 1
 43 499 l 1
 83 592 l 1
 97 592 l 1xb6
 97 603 l 1
 178 603 l 1x2e
 178 592 l 1
 339 592 l 2
 417 592 456 548 456 475 c 1
 456 396 l 1
 456 323 417 279 338 279 c 1
EndSplineSet
Validated: 1
EndChar

StartChar: R
Encoding: 82 82 19
Width: 505
VWidth: 0
Flags: W
HStem: 0 21G<97 178 327.774 411> 0 21G<97 178 327.774 411> 279 93<178 286> 499 93<83 97 178 363.194> 583 20G<97 178>
VStem: 97 81<0 279 372 499 592 603> 374 82<378.82 491.571>
LayerCount: 2
Fore
SplineSet
286 279 m 1xb6
 178 279 l 1
 178 0 l 1
 97 0 l 1
 97 499 l 1
 43 499 l 1
 83 592 l 1
 97 592 l 1xb6
 97 603 l 1
 178 603 l 1x2e
 178 592 l 1
 339 592 l 2
 417 592 456 548 456 475 c 1
 456 396 l 1
 456 333 426 290 365 281 c 1
 411 0 l 1
 331 0 l 1
 286 279 l 1xb6
329 372 m 1
 362 372 374 402 374 431 c 0
 374 464 364 499 330 499 c 2
 178 499 l 1
 178 372 l 1
 329 372 l 1
EndSplineSet
Validated: 1
EndChar

StartChar: X
Encoding: 88 88 20
Width: 486
VWidth: 0
Flags: W
HStem: 0 21G<51 157.208 331 437> 0 21G<51 157.208 331 437> 572 20G<43 146.237 341.763 445> 572 20G<43 146.237 341.763 445>
LayerCount: 2
Fore
SplineSet
245 192 m 1xa0
 147 0 l 1
 51 0 l 1
 198 287 l 1
 43 592 l 1
 136 592 l 1
 244 381 l 1
 352 592 l 1
 445 592 l 1
 291 287 l 1
 437 0 l 1
 341 0 l 1
 245 192 l 1xa0
EndSplineSet
Validated: 1
EndChar

StartChar: D
Encoding: 68 68 21
Width: 485
VWidth: 0
Flags: W
HStem: 0 93<87 101 182.042 346.038> 499 93<87 101 182 343.035> 583 20G<101 182>
VStem: 101 81<-11 0 93 499 592 603> 350 81<96.0908 490.157>
LayerCount: 2
Fore
SplineSet
182 499 m 1xd8
 182 93 l 1
 182 93 240 92 282 92 c 0
 325 92 350 92 350 126 c 1
 350 455 l 1
 350 489 325 499 282 499 c 1
 182 499 l 1xd8
182 592 m 1
 314 592 l 1
 387 592 431 554 431 476 c 1
 431 117 l 1
 431 39 387 0 314 0 c 1
 182 0 l 1
 182 -11 l 1
 101 -11 l 1
 101 0 l 1
 87 0 l 1
 47 93 l 1
 101 93 l 1
 101 499 l 1
 47 499 l 1
 87 592 l 1
 101 592 l 1xd8
 101 603 l 1
 182 603 l 1xb8
 182 592 l 1
EndSplineSet
Validated: 1
EndChar

StartChar: B
Encoding: 66 66 22
Width: 508
VWidth: 0
Flags: W
HStem: 0 93<87 101 182 367.194> 279 93<182 315.875> 499 93<87 101 182 315.194> 583 20G<101 182>
VStem: 101 81<-11 0 93 279 372 499 592 603> 326 82<380.563 491.035> 378 82<103.656 271.566>
LayerCount: 2
Fore
SplineSet
101 499 m 1xea
 47 499 l 1
 87 592 l 1
 101 592 l 1xea
 101 603 l 1
 182 603 l 1xda
 182 592 l 1
 291 592 l 2
 369 592 408 554 408 481 c 1
 408 437 l 2xec
 408 413 404 377 370 356 c 1
 416 356 460 316 460 267 c 1
 460 117 l 1
 460 44 421 0 343 0 c 2
 182 0 l 1
 182 -11 l 1
 101 -11 l 1
 101 0 l 1
 87 0 l 1
 47 93 l 1
 101 93 l 1
 101 499 l 1xea
281 372 m 1
 314 372 326 407 326 436 c 0xec
 326 469 316 499 282 499 c 2
 182 499 l 1
 182 372 l 1
 281 372 l 1
182 93 m 1
 334 93 l 2
 354 93 378 114 378 148 c 2
 378 218 l 2xca
 378 247 368 279 333 279 c 2
 182 279 l 1
 182 93 l 1
EndSplineSet
Validated: 1
EndChar

StartChar: Y
Encoding: 89 89 23
Width: 486
VWidth: 0
Flags: W
HStem: 0 21G<204 284> 0 21G<204 284> 572 20G<43 146.189 341.811 445> 572 20G<43 146.189 341.811 445>
VStem: 204 80<0 281>
LayerCount: 2
Fore
SplineSet
204 281 m 1xa8
 43 592 l 1
 136 592 l 1
 244 380 l 1
 352 592 l 1
 445 592 l 1
 284 281 l 1
 284 0 l 1
 204 0 l 1
 204 281 l 1xa8
EndSplineSet
Validated: 1
EndChar

StartChar: Z
Encoding: 90 90 24
Width: 372
VWidth: 0
Flags: W
HStem: 600 20G<69.8065 113.744>
VStem: 40 294
LayerCount: 2
Fore
SplineSet
229 296 m 1
 166 165 l 2
 163 158 161 151 169 146 c 2
 334 35 l 1
 290 -27 l 1
 116 90 l 2
 92.671875 105.747070312 83.2890625 124.213867188 83.2890625 145.005859375 c 0
 83.2890625 159.865234375 88.0810546875 175.911132812 96 193 c 2
 149 305 l 1
 208 428 l 2
 211 435 213 442 205 447 c 2
 40 558 l 1
 84 620 l 1
 258 503 l 2
 281.328125 487.252929688 290.7109375 468.786132812 290.7109375 447.994140625 c 0
 290.7109375 433.134765625 285.918945312 417.088867188 278 400 c 2
 229 296 l 1
EndSplineSet
Validated: 524289
EndChar

StartChar: T
Encoding: 84 84 25
Width: 432
VWidth: 0
Flags: W
HStem: 0 21G<169 250> 0 21G<169 250> 499 93<83 169 250 351>
VStem: 169 81<0 499>
LayerCount: 2
Fore
SplineSet
250 499 m 1xb0
 250 0 l 1
 169 0 l 1
 169 499 l 1
 43 499 l 1
 83 592 l 1
 391 592 l 1
 351 499 l 1
 250 499 l 1xb0
EndSplineSet
Validated: 1
EndChar

